<mxfile host="app.diagrams.net" modified="2023-12-18T02:55:55.102Z" agent="Mozilla/5.0 (Windows NT 10.0; Win64; x64) AppleWebKit/537.36 (KHTML, like Gecko) Chrome/120.0.0.0 Safari/537.36 Edg/120.0.0.0" version="22.1.11" etag="aG-pi-wttYwGeg8NTQXK" type="github">
  <diagram name="第 1 页" id="ORTG3BduSMmwJ5yzQQCn">
    <mxGraphModel>
      <root>
        <mxCell id="0" />
        <mxCell id="1" parent="0" />
      </root>
    </mxGraphModel>
  </diagram>
</mxfile>
